<mxfile host="app.diagrams.net" modified="2024-01-09T15:48:23.350Z" agent="Mozilla/5.0 (Windows NT 10.0; Win64; x64) AppleWebKit/537.36 (KHTML, like Gecko) Chrome/120.0.0.0 Safari/537.36" etag="VMi7S_zzyIVgHk-xlgYT" version="22.1.17" type="github">
  <diagram name="Page-1" id="e7e014a7-5840-1c2e-5031-d8a46d1fe8dd">
    <mxGraphModel dx="1276" dy="543" grid="1" gridSize="10" guides="1" tooltips="1" connect="1" arrows="1" fold="1" page="1" pageScale="1" pageWidth="1169" pageHeight="826" background="none" math="0" shadow="0">
      <root>
        <mxCell id="0" />
        <mxCell id="1" parent="0" />
        <mxCell id="jvWZMeicxXuKY1bDc1J6-59" value="" style="edgeStyle=orthogonalEdgeStyle;rounded=0;orthogonalLoop=1;jettySize=auto;html=1;" parent="1" source="2" target="jvWZMeicxXuKY1bDc1J6-46" edge="1">
          <mxGeometry relative="1" as="geometry" />
        </mxCell>
        <mxCell id="2" value="Employee" style="swimlane;whiteSpace=wrap" parent="1" vertex="1">
          <mxGeometry x="164.5" y="128" width="280" height="570" as="geometry" />
        </mxCell>
        <mxCell id="5" value="" style="ellipse;shape=startState;fillColor=#000000;strokeColor=#ff0000;" parent="2" vertex="1">
          <mxGeometry x="100" y="40" width="30" height="30" as="geometry" />
        </mxCell>
        <mxCell id="6" value="" style="edgeStyle=elbowEdgeStyle;elbow=horizontal;verticalAlign=bottom;endArrow=open;endSize=8;strokeColor=#FF0000;endFill=1;rounded=0" parent="2" source="5" target="7" edge="1">
          <mxGeometry x="100" y="40" as="geometry">
            <mxPoint x="115" y="110" as="targetPoint" />
          </mxGeometry>
        </mxCell>
        <mxCell id="7" value="Log in" style="" parent="2" vertex="1">
          <mxGeometry x="60" y="110" width="110" height="50" as="geometry" />
        </mxCell>
        <mxCell id="8" value="Access the&#xa; attendance section." style="" parent="2" vertex="1">
          <mxGeometry x="60" y="352" width="110" height="50" as="geometry" />
        </mxCell>
        <mxCell id="9" value="" style="endArrow=open;strokeColor=#FF0000;endFill=1;rounded=0" parent="2" source="jvWZMeicxXuKY1bDc1J6-41" target="8" edge="1">
          <mxGeometry relative="1" as="geometry" />
        </mxCell>
        <mxCell id="jvWZMeicxXuKY1bDc1J6-45" value="CORRECT" style="edgeLabel;html=1;align=center;verticalAlign=middle;resizable=0;points=[];" parent="9" vertex="1" connectable="0">
          <mxGeometry x="-0.3035" y="2" relative="1" as="geometry">
            <mxPoint as="offset" />
          </mxGeometry>
        </mxCell>
        <mxCell id="10" value="Enter work&#xa; hours for the day" style="" parent="2" vertex="1">
          <mxGeometry x="60" y="472" width="110" height="50" as="geometry" />
        </mxCell>
        <mxCell id="11" value="" style="endArrow=open;strokeColor=#FF0000;endFill=1;rounded=0" parent="2" source="8" target="10" edge="1">
          <mxGeometry relative="1" as="geometry" />
        </mxCell>
        <mxCell id="12" value="" style="edgeStyle=elbowEdgeStyle;elbow=horizontal;strokeColor=#FF0000;endArrow=open;endFill=1;rounded=0;exitX=0;exitY=0.5;exitDx=0;exitDy=0;" parent="2" source="jvWZMeicxXuKY1bDc1J6-41" target="7" edge="1">
          <mxGeometry width="100" height="100" relative="1" as="geometry">
            <mxPoint x="85.5" y="255" as="sourcePoint" />
            <mxPoint x="260" y="190" as="targetPoint" />
            <Array as="points">
              <mxPoint x="30" y="250" />
            </Array>
          </mxGeometry>
        </mxCell>
        <mxCell id="jvWZMeicxXuKY1bDc1J6-44" value="INCORRECT" style="edgeLabel;html=1;align=center;verticalAlign=middle;resizable=0;points=[];" parent="12" vertex="1" connectable="0">
          <mxGeometry x="-0.3345" y="1" relative="1" as="geometry">
            <mxPoint as="offset" />
          </mxGeometry>
        </mxCell>
        <mxCell id="jvWZMeicxXuKY1bDc1J6-41" value="" style="rhombus;fillColor=#ffffc0;strokeColor=#ff0000;" parent="2" vertex="1">
          <mxGeometry x="60" y="235" width="110" height="55" as="geometry" />
        </mxCell>
        <mxCell id="jvWZMeicxXuKY1bDc1J6-43" value="" style="endArrow=open;strokeColor=#FF0000;endFill=1;rounded=0" parent="2" source="7" target="jvWZMeicxXuKY1bDc1J6-41" edge="1">
          <mxGeometry relative="1" as="geometry">
            <mxPoint x="279.5" y="288" as="sourcePoint" />
            <mxPoint x="279.5" y="480" as="targetPoint" />
          </mxGeometry>
        </mxCell>
        <mxCell id="b4fIHOaouhLPmm5wPn8J-12" value="Authentication&amp;nbsp;" style="edgeLabel;html=1;align=center;verticalAlign=middle;resizable=0;points=[];" vertex="1" connectable="0" parent="jvWZMeicxXuKY1bDc1J6-43">
          <mxGeometry x="0.0347" relative="1" as="geometry">
            <mxPoint as="offset" />
          </mxGeometry>
        </mxCell>
        <mxCell id="jvWZMeicxXuKY1bDc1J6-46" value="SYSTEM" style="swimlane;whiteSpace=wrap" parent="1" vertex="1">
          <mxGeometry x="450" y="128" width="250" height="570" as="geometry" />
        </mxCell>
        <mxCell id="jvWZMeicxXuKY1bDc1J6-50" value="Biometric data &#xa;is collected." style="" parent="jvWZMeicxXuKY1bDc1J6-46" vertex="1">
          <mxGeometry x="60" y="200" width="150" height="82" as="geometry" />
        </mxCell>
        <mxCell id="jvWZMeicxXuKY1bDc1J6-53" value="System updates &#xa;attendance records &#xa;based on biometric data" style="" parent="jvWZMeicxXuKY1bDc1J6-46" vertex="1">
          <mxGeometry x="45" y="372" width="180" height="108" as="geometry" />
        </mxCell>
        <mxCell id="jvWZMeicxXuKY1bDc1J6-54" value="" style="endArrow=open;strokeColor=#FF0000;endFill=1;rounded=0" parent="jvWZMeicxXuKY1bDc1J6-46" source="jvWZMeicxXuKY1bDc1J6-50" target="jvWZMeicxXuKY1bDc1J6-53" edge="1">
          <mxGeometry relative="1" as="geometry" />
        </mxCell>
        <mxCell id="b4fIHOaouhLPmm5wPn8J-13" value="" style="ellipse;html=1;shape=endState;fillColor=#000000;strokeColor=#ff0000;" vertex="1" parent="jvWZMeicxXuKY1bDc1J6-46">
          <mxGeometry x="120" y="532" width="30" height="30" as="geometry" />
        </mxCell>
        <mxCell id="b4fIHOaouhLPmm5wPn8J-14" value="" style="endArrow=open;strokeColor=#FF0000;endFill=1;rounded=0" edge="1" parent="jvWZMeicxXuKY1bDc1J6-46">
          <mxGeometry relative="1" as="geometry">
            <mxPoint x="134" y="482" as="sourcePoint" />
            <mxPoint x="134" y="532" as="targetPoint" />
          </mxGeometry>
        </mxCell>
        <mxCell id="jvWZMeicxXuKY1bDc1J6-60" value="" style="endArrow=open;strokeColor=#FF0000;endFill=1;rounded=0" parent="1" source="10" target="jvWZMeicxXuKY1bDc1J6-50" edge="1">
          <mxGeometry relative="1" as="geometry">
            <mxPoint x="360" y="590" as="sourcePoint" />
            <mxPoint x="360" y="660" as="targetPoint" />
          </mxGeometry>
        </mxCell>
      </root>
    </mxGraphModel>
  </diagram>
</mxfile>
